<?xml version="1.0" encoding="UTF-8"?>
<svg xmlns="http://www.w3.org/2000/svg" viewBox="0 0 128 128" role="img" aria-label="Where's That BB">
  <title>Where's That BB</title>
  <!-- Generated by scripts/generate-wtbb-monogram.mjs — edit that, don't hand-tweak -->
  
  
  
  <g fill="#15202c" fill-rule="nonzero">
    <path transform="translate(7.14 36.78)" d="M3.20 0L32.92 0C45.40 0 51.71 5.54 51.71 15.13C51.71 23.71 44.07 27.77 37.75 28.55L37.75 28.94C43.84 30.26 49.53 34.09 49.53 41.65C49.53 48.98 43.99 54.44 31.36 54.44L3.20 54.44L3.20 49.30L8.66 49.30L8.66 5.15L3.20 5.15M21.29 25.27L29.95 25.27C35.57 25.27 38.77 22.31 38.77 17.24L38.77 13.57C38.77 8.50 35.57 5.54 29.95 5.54L21.29 5.54M21.29 48.91L28.55 48.91C33.93 48.91 36.58 46.33 36.58 41.50L36.58 38.06C36.58 33.23 33.93 30.65 28.55 30.65L21.29 30.65"/>
    <path transform="translate(59.55 36.78)" d="M3.20 0L32.92 0C45.40 0 51.71 5.54 51.71 15.13C51.71 23.71 44.07 27.77 37.75 28.55L37.75 28.94C43.84 30.26 49.53 34.09 49.53 41.65C49.53 48.98 43.99 54.44 31.36 54.44L3.20 54.44L3.20 49.30L8.66 49.30L8.66 5.15L3.20 5.15M21.29 25.27L29.95 25.27C35.57 25.27 38.77 22.31 38.77 17.24L38.77 13.57C38.77 8.50 35.57 5.54 29.95 5.54L21.29 5.54M21.29 48.91L28.55 48.91C33.93 48.91 36.58 46.33 36.58 41.50L36.58 38.06C36.58 33.23 33.93 30.65 28.55 30.65L21.29 30.65"/>
  </g>
  
  <g fill="none" stroke="#547942" stroke-linecap="round" stroke-linejoin="round">
    <path stroke-width="1.9" d="M90.0 41.5C90.9 42.6, 94.6 45.8, 95.5 48.0C96.4 50.2, 95.9 52.6, 95.5 54.5C95.1 56.4, 93.2 57.9, 93.0 59.5C92.8 61.1, 93.6 62.4, 94.5 64.0C95.4 65.6, 97.5 67.3, 98.5 69.0C99.5 70.7, 99.9 73.2, 100.2 74.0"/>
    <path stroke-width="1.35" d="M93.8 42.1L89.8 44.6"/>
    <path stroke-width="1.35" d="M98.1 48.6L93.4 48.9"/>
    <path stroke-width="1.35" d="M97.8 54.7L93.5 52.8"/>
    <path stroke-width="1.35" d="M95.4 59.4L92.1 56.0"/>
    <path stroke-width="1.35" d="M95.5 61.1L90.8 61.3"/>
    <path stroke-width="1.35" d="M97.1 63.7L92.8 65.6"/>
    <path stroke-width="1.35" d="M100.3 67.5L96.0 69.3"/>
    <path stroke-width="1.35" d="M102.2 72.5L97.5 72.7"/>
  </g>
  <circle cx="91.2" cy="77.2" r="3.6" fill="#547942"/>
</svg>
