<?xml version="1.0" encoding="UTF-8"?>
<svg xmlns="http://www.w3.org/2000/svg" viewBox="0 0 128 128" role="img" aria-label="Where's That BB">
  <title>Where's That BB</title>
  <!-- Baseball (top/bottom seams) + spray arrows. scripts/generate-wtbb-logo.mjs -->
  <rect width="128" height="128" rx="28" fill="#ede6d6"/>
  
  <circle cx="36" cy="64" r="28" fill="#f4f1ea" stroke="#1c2b2a" stroke-width="2.8"/>
  <path fill="none" stroke="#c41e3a" stroke-width="1.2" stroke-linecap="round" opacity="0.45" d="M12.2 50.0C27.6 61.8, 44.4 61.8, 59.8 50.0"/>
  <path fill="none" stroke="#c41e3a" stroke-width="1.9" stroke-linecap="round" stroke-linejoin="round" d="M17.5 50.3L16.9 53.2L14.6 55.1"/>
  <path fill="none" stroke="#c41e3a" stroke-width="1.9" stroke-linecap="round" stroke-linejoin="round" d="M21.8 52.7L21.6 55.6L19.6 57.8"/>
  <path fill="none" stroke="#c41e3a" stroke-width="1.9" stroke-linecap="round" stroke-linejoin="round" d="M26.2 54.4L26.4 57.4L24.6 59.8"/>
  <path fill="none" stroke="#c41e3a" stroke-width="1.9" stroke-linecap="round" stroke-linejoin="round" d="M30.6 55.6L31.2 58.5L29.8 61.1"/>
  <path fill="none" stroke="#c41e3a" stroke-width="1.9" stroke-linecap="round" stroke-linejoin="round" d="M35.0 56.0L36.0 58.8L35.0 61.6"/>
  <path fill="none" stroke="#c41e3a" stroke-width="1.9" stroke-linecap="round" stroke-linejoin="round" d="M39.5 55.8L40.8 58.5L40.3 61.4"/>
  <path fill="none" stroke="#c41e3a" stroke-width="1.9" stroke-linecap="round" stroke-linejoin="round" d="M43.9 55.0L45.6 57.4L45.5 60.4"/>
  <path fill="none" stroke="#c41e3a" stroke-width="1.9" stroke-linecap="round" stroke-linejoin="round" d="M48.4 53.5L50.4 55.6L50.7 58.6"/>
  <path fill="none" stroke="#c41e3a" stroke-width="1.9" stroke-linecap="round" stroke-linejoin="round" d="M52.9 51.3L55.1 53.2L55.7 56.1"/>
  <path fill="none" stroke="#c41e3a" stroke-width="1.2" stroke-linecap="round" opacity="0.45" d="M12.2 78.0C27.6 66.2, 44.4 66.2, 59.8 78.0"/>
  <path fill="none" stroke="#c41e3a" stroke-width="1.9" stroke-linecap="round" stroke-linejoin="round" d="M14.6 72.9L16.9 74.8L17.5 77.7"/>
  <path fill="none" stroke="#c41e3a" stroke-width="1.9" stroke-linecap="round" stroke-linejoin="round" d="M19.6 70.2L21.6 72.4L21.8 75.3"/>
  <path fill="none" stroke="#c41e3a" stroke-width="1.9" stroke-linecap="round" stroke-linejoin="round" d="M24.6 68.2L26.4 70.6L26.2 73.6"/>
  <path fill="none" stroke="#c41e3a" stroke-width="1.9" stroke-linecap="round" stroke-linejoin="round" d="M29.8 66.9L31.2 69.5L30.6 72.4"/>
  <path fill="none" stroke="#c41e3a" stroke-width="1.9" stroke-linecap="round" stroke-linejoin="round" d="M35.0 66.4L36.0 69.2L35.0 72.0"/>
  <path fill="none" stroke="#c41e3a" stroke-width="1.9" stroke-linecap="round" stroke-linejoin="round" d="M40.3 66.6L40.8 69.5L39.5 72.2"/>
  <path fill="none" stroke="#c41e3a" stroke-width="1.9" stroke-linecap="round" stroke-linejoin="round" d="M45.5 67.6L45.6 70.6L43.9 73.0"/>
  <path fill="none" stroke="#c41e3a" stroke-width="1.9" stroke-linecap="round" stroke-linejoin="round" d="M50.7 69.4L50.4 72.4L48.4 74.5"/>
  <path fill="none" stroke="#c41e3a" stroke-width="1.9" stroke-linecap="round" stroke-linejoin="round" d="M55.7 71.9L55.1 74.8L52.9 76.7"/>
  <g>
    <path fill="none" stroke="#1b4332" stroke-width="3" stroke-linecap="round" d="M40.0 64.0L111.5 64.0"/>
    <path fill="#1b4332" d="M111.0 70.0L122.0 64.0L111.0 58.0Z"/>
    <path fill="none" stroke="#1b4332" stroke-width="3" stroke-linecap="round" d="M39.7 62.5L105.8 35.1"/>
    <path fill="#1b4332" d="M107.6 40.8L115.5 31.1L103.0 29.8Z"/>
    <path fill="none" stroke="#1b4332" stroke-width="3" stroke-linecap="round" d="M38.8 61.2L89.4 10.6"/>
    <path fill="#1b4332" d="M93.3 15.2L96.8 3.2L84.8 6.7Z"/>
  </g>
  <circle cx="36" cy="64" r="4.2" fill="#1b4332"/>
</svg>
